<svg id="Capa_1" enable-background="new 0 0 512 512" height="512" viewBox="0 0 512 512" width="512" xmlns="http://www.w3.org/2000/svg"><path d="m508.371 48.293c-2.678-2.215-6.316-2.88-9.602-1.757l-492 167.961c-3.848 1.313-6.517 4.825-6.753 8.884-.235 4.059 2.009 7.856 5.679 9.606l122.632 58.49 65.607 168.157c1.153 2.955 3.639 5.188 6.7 6.017.862.234 1.742.349 2.615.349 2.228 0 4.42-.744 6.206-2.158l102.461-81.075 131.278 67.562c2.88 1.482 6.299 1.479 9.175-.012 2.876-1.489 4.853-4.279 5.304-7.486l54.229-385.437c.485-3.441-.852-6.887-3.531-9.101zm-471.92 177.205 386.38-131.904-287.267 179.176zm166.494 202.204-54.407-139.452 297.782-185.735-207.291 228.588c-.867.957-1.541 2.072-1.984 3.285zm21.838-1.492 27.155-74.312 40.449 20.817zm215.047-.107-177.235-91.214 224.974-248.087z"/></svg>